<svg width="650" height="651" viewBox="0 0 650 651" fill="none" xmlns="http://www.w3.org/2000/svg">
<g clip-path="url(#clip0_22_641)">
<path d="M592.547 300.018C592.604 377.89 562.335 452.729 508.147 508.695C453.96 564.662 380.105 597.365 302.213 599.883C298.922 599.994 295.616 600.048 292.297 600.045C220.586 600.153 151.225 574.508 96.8551 527.786C89.2867 521.302 82.0611 514.459 75.1784 507.256C60.0163 491.402 46.6316 473.941 35.2622 455.183C19.0539 428.445 7.15448 399.327 6.10352e-05 368.895V231.142C7.31872 200.035 19.592 170.305 36.3507 143.089C45.9205 148.911 57.2528 151.136 68.3157 149.365C79.3785 147.595 89.4486 141.945 96.7204 133.428C103.992 124.912 107.99 114.085 107.998 102.89C108.005 91.6948 104.021 80.863 96.7608 72.3367C140.138 35.1723 193.218 11.1327 249.78 3.03555C306.342 -5.06165 364.042 3.11904 416.117 26.6188C419.151 27.9891 422.156 29.4108 425.134 30.884C524.328 79.865 592.547 181.981 592.547 300.018Z" fill="#F2F2F2"/>
<path d="M63.4272 137.959C79.0486 137.959 91.7123 125.305 91.7123 109.696C91.7123 94.0862 79.0486 81.4323 63.4272 81.4323C47.8058 81.4323 35.1421 94.0862 35.1421 109.696C35.1421 125.305 47.8058 137.959 63.4272 137.959Z" fill="#F2F2F2"/>
<path d="M650 650.979L96.855 650.122V366.771C97.1722 366.728 97.5236 366.685 97.9093 366.634C102.795 366.009 113.115 364.801 127.652 363.696C161.962 361.093 219.732 359.063 284.882 366.634C294.816 367.79 304.905 369.178 315.147 370.796C323.659 372.158 332.241 373.703 340.895 375.43C344.658 376.183 348.43 376.977 352.209 377.811C360.446 379.618 368.703 381.619 376.98 383.814C404.887 391.102 432.102 400.817 458.313 412.849C469.267 417.944 480.049 423.503 490.575 429.592C506.029 438.488 520.799 448.522 534.76 459.611C588.673 502.58 631.392 564.536 650 650.979Z" fill="#2F2E41"/>
<path d="M553.145 650.979H0V367.627C0.317136 367.585 0.668553 367.542 1.05426 367.49C1.77424 367.396 2.60566 367.293 3.55711 367.182C9.05985 366.514 18.3939 365.495 30.7965 364.553C39.4106 363.902 49.5075 363.285 60.8387 362.84C81.8897 362.026 107.183 361.829 135.066 363.174C151.891 363.987 169.668 365.358 188.027 367.49C197.961 368.647 208.05 370.034 218.292 371.653C226.804 373.014 235.386 374.559 244.04 376.286C247.803 377.04 251.575 377.833 255.354 378.667C263.591 380.474 271.848 382.476 280.125 384.671C301.039 390.172 321.582 396.992 341.633 405.089C348.301 407.795 354.909 410.667 361.458 413.705C365.161 415.426 368.843 417.205 372.506 419.041C379.672 422.621 386.743 426.423 393.72 430.449C404.534 436.682 415.019 443.468 425.134 450.781C425.905 451.321 426.676 451.886 427.448 452.451C430.979 455.055 434.465 457.727 437.905 460.468C439.079 461.41 440.253 462.352 441.419 463.311C447.273 468.107 452.987 473.129 458.561 478.376C472.256 491.271 484.755 505.377 495.906 520.523C521.86 555.792 541.865 598.701 553.111 650.825C553.119 650.876 553.137 650.928 553.145 650.979Z" fill="#3F3D56"/>
<path opacity="0.1" d="M263.319 479.027C265.657 473.854 248.668 461.137 225.372 450.622C202.076 440.107 181.296 435.776 178.957 440.949C176.619 446.122 193.608 458.839 216.904 469.354C240.2 479.869 260.98 484.2 263.319 479.027Z" fill="black"/>
<path opacity="0.1" d="M348.174 500.439C350.513 495.266 333.523 482.548 310.228 472.033C286.932 461.518 266.151 457.188 263.813 462.361C261.474 467.533 278.463 480.251 301.759 490.766C325.055 501.281 345.836 505.612 348.174 500.439Z" fill="black"/>
<path d="M60.8346 372.53V308.799" stroke="#3F3D56" stroke-width="2" stroke-miterlimit="10"/>
<path d="M60.8346 317.811C65.8159 317.811 69.854 313.776 69.854 308.799C69.854 303.822 65.8159 299.787 60.8346 299.787C55.8534 299.787 51.8152 303.822 51.8152 308.799C51.8152 313.776 55.8534 317.811 60.8346 317.811Z" fill="#3F3D56"/>
<path d="M60.8346 348.077C60.8346 348.077 59.5462 320.386 33.1323 323.605L60.8346 348.077Z" fill="#3F3D56"/>
<path d="M204.879 119.226L211.328 119.818L233.273 121.837L268.7 125.093L272.228 86.815C272.563 83.2169 272.185 79.588 271.115 76.1361C270.045 72.6842 268.304 69.477 265.993 66.6981C263.681 63.9192 260.843 61.6232 257.642 59.9415C254.441 58.2597 250.939 57.2253 247.338 56.8974C239.635 56.1823 231.904 57.9288 225.258 61.8855C218.613 65.8421 213.395 71.8046 210.358 78.9139L210.353 78.9264C208.86 82.426 207.922 86.1372 207.575 89.9259L204.879 119.226Z" fill="#2F2E41"/>
<path d="M231.852 102.416C231.852 102.416 234.423 123.827 231.852 124.684C229.281 125.54 220.709 128.966 220.709 128.966L236.138 145.239L258.423 146.095L263.566 129.822L258.423 125.54L256.709 104.129L231.852 102.416Z" fill="#FFB8B8"/>
<path opacity="0.1" d="M231.852 102.416C231.852 102.416 234.423 123.827 231.852 124.684C229.281 125.54 220.709 128.966 220.709 128.966L236.138 145.239L258.423 146.095L263.566 129.822L258.423 125.54L256.709 104.129L231.852 102.416Z" fill="black"/>
<path d="M198.424 141.813L191.567 200.909L182.139 260.861C182.139 260.861 174.425 289.981 188.996 289.124C203.567 288.268 193.281 259.148 193.281 259.148L206.995 208.617L212.995 157.229L198.424 141.813Z" fill="#FFB8B8"/>
<path d="M290.137 142.669L296.136 203.478L331.278 236.88C331.278 236.88 354.421 248.87 350.135 256.579C345.85 264.287 321.85 243.732 321.85 243.732L279.851 213.756L277.28 176.071L279.851 138.387L290.137 142.669Z" fill="#FFB8B8"/>
<path d="M200.996 430.44C200.996 430.44 188.996 450.995 194.996 453.565C200.996 456.134 218.138 463.842 218.138 463.842C218.138 463.842 244.709 468.981 243.852 461.273C242.995 453.565 232.709 453.565 232.709 453.565C232.709 453.565 218.193 439.005 218.594 433.866C218.995 428.727 200.996 430.44 200.996 430.44Z" fill="#2F2E41"/>
<path opacity="0.1" d="M200.996 430.44C200.996 430.44 188.996 450.995 194.996 453.565C200.996 456.134 218.138 463.842 218.138 463.842C218.138 463.842 244.709 468.981 243.852 461.273C242.995 453.565 232.709 453.565 232.709 453.565C232.709 453.565 218.193 439.005 218.594 433.866C218.995 428.727 200.996 430.44 200.996 430.44Z" fill="black"/>
<path d="M276.422 262.574L278.994 276.277L260.137 352.502L248.995 364.493L219.852 433.866H198.424C198.424 433.866 212.138 379.909 222.424 363.636C232.709 347.364 249.852 264.287 249.852 264.287L276.422 262.574Z" fill="#2F2E41"/>
<path opacity="0.1" d="M240.852 322.098L256.28 324.667L260.137 352.502L248.995 364.493L219.852 433.866H198.424C198.424 433.866 212.138 379.909 222.424 363.636C232.709 347.363 249.852 264.287 249.852 264.287L240.852 322.098Z" fill="black"/>
<path d="M214.71 239.449C214.71 239.449 200.996 265.143 223.281 296.832C245.566 328.521 254.994 360.21 254.994 360.21C254.994 360.21 253.28 417.593 271.28 440.718L278.137 456.134L298.708 444.144C298.708 444.144 275.565 409.029 280.708 366.206C280.708 366.206 285.851 352.502 280.708 341.368C275.565 330.234 261.851 277.134 261.851 277.134L278.994 276.277C278.994 276.277 284.137 243.732 275.565 239.449C266.994 235.167 214.71 239.449 214.71 239.449Z" fill="#2F2E41"/>
<path d="M292.708 441.574C292.708 441.574 311.565 457.847 322.707 459.56C333.85 461.273 333.85 468.981 320.993 470.694C320.993 470.694 295.279 480.971 278.994 473.263V451.852L292.708 441.574Z" fill="#2F2E41"/>
<path d="M245.995 111.408C257.356 111.408 266.566 102.206 266.566 90.8534C266.566 79.5012 257.356 70.2983 245.995 70.2983C234.634 70.2983 225.424 79.5012 225.424 90.8534C225.424 102.206 234.634 111.408 245.995 111.408Z" fill="#FFB8B8"/>
<path d="M229.281 129.822L232.281 124.255C232.281 124.255 191.567 138.387 195.853 145.239C200.138 152.09 212.138 162.368 212.138 162.368V176.071C212.138 176.071 224.995 215.468 212.138 237.736C199.281 260.004 282.422 253.153 279.851 237.736C277.28 222.32 273.851 206.047 277.28 198.339C280.708 190.631 286.708 182.067 281.565 161.511L294.422 147.808C294.422 147.808 290.137 134.105 278.994 131.535C267.851 128.966 258.851 125.968 258.851 125.968C258.851 125.968 264.423 136.674 254.994 137.531C245.566 138.387 229.281 129.822 229.281 129.822Z" fill="#00B0FF"/>
<path d="M211.328 119.818C213.333 122.179 215.992 123.895 218.969 124.753C221.947 125.611 225.112 125.572 228.067 124.641C231.023 123.71 233.638 121.928 235.584 119.518C237.531 117.109 238.723 114.179 239.01 111.096C221.679 101.286 227.335 88.0855 242.477 73.4783C242.763 70.3721 242.118 67.2511 240.623 64.5125C239.129 61.7739 236.852 59.5415 234.084 58.0993C228.827 59.583 223.969 62.222 219.864 65.8233C215.759 69.4246 212.511 73.8972 210.358 78.9139L210.353 78.9264L207.65 108.209C207.457 110.292 207.682 112.392 208.314 114.385C208.945 116.379 209.97 118.226 211.328 119.818Z" fill="#2F2E41"/>
<path d="M235.46 80.4839L267.021 81.2071L267.315 68.4496C264.814 64.8964 261.507 61.9849 257.664 59.9532L235.943 59.4593L235.46 80.4839Z" fill="#2F2E41"/>
<path d="M298.768 650.979H0V473.563C11.1169 474.736 19.5253 462.96 29.6479 457.522C37.5677 453.265 46.9447 452.914 55.9359 452.862C70.4299 452.785 85.1896 453.291 98.9121 457.95C103.318 459.435 107.547 461.403 111.52 463.817C120.023 468.99 127.154 476.252 130.943 485.365C133.231 490.864 134.877 497.604 140.354 499.959C143.405 501.278 146.894 500.807 150.185 500.319C161.748 498.589 173.311 496.862 184.873 495.137C193.427 493.853 202.83 492.739 210.133 497.373C221.395 504.516 221.404 520.711 219.509 533.909C217.607 547.107 215.875 562.678 225.646 571.756C237.492 582.77 256.546 575.893 272.557 578.197C280.038 579.385 287.03 582.664 292.725 587.655C298.42 592.645 302.586 599.144 304.742 606.4C308.873 621.106 304.159 636.522 298.768 650.979Z" fill="#2F2E41"/>
<path d="M72.9395 650.56L75.7089 472.997" stroke="#3F3D56" stroke-width="2" stroke-miterlimit="10"/>
<path d="M75.7089 485.331C82.5262 485.331 88.0527 479.809 88.0527 472.997C88.0527 466.185 82.5262 460.663 75.7089 460.663C68.8917 460.663 63.3652 466.185 63.3652 472.997C63.3652 479.809 68.8917 485.331 75.7089 485.331Z" fill="#3F3D56"/>
<path d="M74.9255 523.223C74.9255 523.223 73.7534 485.302 37.5395 489.144L74.9255 523.223Z" fill="#3F3D56"/>
<path d="M72.9923 647.17C72.9923 647.17 82.0632 574.425 36.2755 570.187" stroke="#3F3D56" stroke-width="2" stroke-miterlimit="10"/>
<path d="M36.2755 582.522C43.0928 582.522 48.6193 576.999 48.6193 570.187C48.6193 563.375 43.0928 557.853 36.2755 557.853C29.4582 557.853 23.9318 563.375 23.9318 570.187C23.9318 576.999 29.4582 582.522 36.2755 582.522Z" fill="#3F3D56"/>
<path d="M143.976 650.879V587.149" stroke="#3F3D56" stroke-width="2" stroke-miterlimit="10"/>
<path d="M143.976 596.161C148.957 596.161 152.995 592.126 152.995 587.149C152.995 582.172 148.957 578.137 143.976 578.137C138.994 578.137 134.956 582.172 134.956 587.149C134.956 592.126 138.994 596.161 143.976 596.161Z" fill="#3F3D56"/>
<path d="M143.976 626.427C143.976 626.427 142.687 598.736 116.273 601.955L143.976 626.427Z" fill="#3F3D56"/>
<path d="M458.561 262.146H441.419V523.366H458.561V262.146Z" fill="#3F3D56"/>
<path d="M561.416 253.581H338.564V358.069H561.416V253.581Z" fill="#3F3D56"/>
<path d="M519.417 280.988H377.135V284.414H519.417V280.988Z" fill="#00B0FF"/>
<path d="M519.417 291.265H377.135V294.691H519.417V291.265Z" fill="#00B0FF"/>
<path d="M519.417 301.543H377.135V304.969H519.417V301.543Z" fill="#00B0FF"/>
<path d="M449.99 265.571C456.617 265.571 461.99 260.203 461.99 253.581C461.99 246.959 456.617 241.591 449.99 241.591C443.363 241.591 437.99 246.959 437.99 253.581C437.99 260.203 443.363 265.571 449.99 265.571Z" fill="#00B0FF"/>
<path d="M502.275 345.222C508.429 345.222 513.417 340.237 513.417 334.088C513.417 327.939 508.429 322.954 502.275 322.954C496.121 322.954 491.132 327.939 491.132 334.088C491.132 340.237 496.121 345.222 502.275 345.222Z" stroke="#6C63FF" stroke-width="2" stroke-miterlimit="10"/>
<path d="M497.989 331.519C498.936 331.519 499.703 330.752 499.703 329.806C499.703 328.86 498.936 328.093 497.989 328.093C497.042 328.093 496.275 328.86 496.275 329.806C496.275 330.752 497.042 331.519 497.989 331.519Z" fill="#00B0FF"/>
<path d="M506.56 331.519C507.507 331.519 508.275 330.752 508.275 329.806C508.275 328.86 507.507 328.093 506.56 328.093C505.614 328.093 504.846 328.86 504.846 329.806C504.846 330.752 505.614 331.519 506.56 331.519Z" fill="#00B0FF"/>
<path d="M497.132 336.658C497.132 336.658 501.418 342.653 507.417 336.658H497.132Z" fill="#00B0FF"/>
<path d="M497.989 323.809L506.56 311.82L510.524 326.609C510.524 326.609 506.56 321.238 497.989 323.809Z" fill="#00B0FF"/>
</g>
<defs>
<clipPath id="clip0_22_641">
<rect width="650" height="650.979" fill="white"/>
</clipPath>
</defs>
</svg>
