<svg width="1920" height="720" viewBox="0 0 1920 720" fill="none" xmlns="http://www.w3.org/2000/svg">
<path d="M55.0947 635.288C61.8394 637.659 69.081 638.253 76.1219 637.013C83.1627 635.772 89.7656 632.74 95.2942 628.207C109.374 616.388 113.789 596.924 117.38 578.897L128.005 525.573L105.762 540.889C89.7654 551.903 73.4096 563.27 62.3348 579.223C51.26 595.176 46.4283 616.955 55.324 634.217" fill="#E6E6E6"/>
<path d="M58.5292 703.559C55.7296 683.162 52.8492 662.503 54.8177 641.888C56.5621 623.58 62.1479 605.701 73.5197 591.035C79.5558 583.267 86.9006 576.611 95.224 571.367C97.3939 569.997 99.3915 573.436 97.2309 574.8C82.8288 583.901 71.6892 597.341 65.418 613.182C58.4921 630.797 57.38 650 58.5729 668.713C59.2941 680.029 60.8264 691.271 62.3653 702.5C62.4868 703.007 62.4109 703.542 62.1531 703.996C61.8952 704.45 61.4745 704.789 60.9761 704.945C60.4677 705.082 59.9258 705.013 59.4679 704.753C59.0101 704.493 58.6733 704.063 58.5305 703.556L58.5292 703.559Z" fill="#F2F2F2"/>
<path d="M78.68 670.831C81.5722 675.229 85.5483 678.807 90.2251 681.221C94.9018 683.636 100.122 684.805 105.382 684.617C118.902 683.975 130.169 674.543 140.311 665.585L170.314 639.094L150.458 638.144C136.178 637.46 121.529 636.818 107.928 641.227C94.3268 645.635 81.7832 656.229 79.2965 670.308" fill="#E6E6E6"/>
<path d="M50.6157 715.283C64.0938 691.435 79.7258 664.931 107.66 656.46C115.427 654.112 123.57 653.271 131.652 653.982C134.2 654.202 133.564 658.128 131.021 657.91C117.473 656.785 103.951 660.362 92.732 668.039C82.185 675.692 73.2434 685.341 66.4148 696.439C62.0563 703.076 58.1527 709.994 54.249 716.903C53.0016 719.111 49.3538 717.516 50.6157 715.283Z" fill="#F2F2F2"/>
<path d="M1287.95 604.115C1297.24 607.38 1307.21 608.198 1316.91 606.49C1326.61 604.782 1335.7 600.606 1343.31 594.364C1362.7 578.09 1368.78 551.286 1373.73 526.461L1388.36 453.031L1357.73 474.121C1335.7 489.288 1313.18 504.943 1297.92 526.91C1282.67 548.878 1276.02 578.869 1288.27 602.64" fill="#E6E6E6"/>
<path d="M1292.68 698.128C1288.83 670.041 1284.86 641.591 1287.57 613.204C1289.98 587.992 1297.67 563.372 1313.33 543.176C1321.64 532.479 1331.75 523.313 1343.22 516.092C1346.2 514.206 1348.95 518.941 1345.98 520.819C1326.15 533.353 1310.81 551.86 1302.17 573.674C1292.63 597.931 1291.1 624.375 1292.74 650.143C1293.74 665.726 1295.85 681.207 1297.97 696.67C1298.13 697.369 1298.03 698.106 1297.67 698.731C1297.32 699.356 1296.74 699.823 1296.05 700.037C1295.35 700.226 1294.61 700.131 1293.98 699.773C1293.35 699.415 1292.88 698.822 1292.69 698.124L1292.68 698.128Z" fill="#F2F2F2"/>
<path d="M1320.43 653.06C1324.42 659.116 1329.89 664.043 1336.33 667.368C1342.77 670.693 1349.96 672.304 1357.2 672.044C1375.82 671.16 1391.34 658.171 1405.3 645.836L1446.62 609.356L1419.28 608.047C1399.61 607.105 1379.44 606.222 1360.71 612.293C1341.98 618.364 1324.71 632.952 1321.28 652.339" fill="#E6E6E6"/>
<path d="M1281.79 714.273C1300.35 681.433 1321.87 644.936 1360.34 633.27C1371.04 630.037 1382.25 628.88 1393.38 629.858C1396.89 630.161 1396.01 635.568 1392.51 635.267C1373.85 633.718 1355.23 638.644 1339.78 649.216C1324.92 659.336 1313.34 673.406 1303.54 688.324C1297.54 697.464 1292.17 706.99 1286.79 716.504C1285.07 719.545 1280.05 717.349 1281.79 714.273Z" fill="#F2F2F2"/>
<path d="M1114 109.983C1112.04 109.13 1110.47 107.588 1109.57 105.649C1108.68 103.711 1108.53 101.511 1109.15 99.469C1109.25 99.156 1109.32 98.8321 1109.34 98.5042V98.5042C1109.4 97.5687 1109.15 96.6397 1108.64 95.8548C1108.13 95.0699 1107.38 94.4709 1106.5 94.1465C1105.62 93.8221 1104.66 93.7896 1103.76 94.0538C1102.86 94.3179 1102.07 94.8647 1101.5 95.6131V95.6131C1101.31 95.8786 1101.15 96.1661 1101.02 96.4696C1100.17 98.4269 1098.63 100.002 1096.69 100.896C1094.75 101.79 1092.55 101.94 1090.51 101.317C1090.2 101.216 1089.87 101.153 1089.54 101.128V101.128C1088.61 101.071 1087.68 101.317 1086.89 101.829C1086.11 102.341 1085.51 103.093 1085.19 103.972C1084.86 104.852 1084.83 105.812 1085.09 106.711C1085.36 107.611 1085.9 108.401 1086.65 108.965C1086.92 109.159 1087.21 109.321 1087.51 109.448C1089.47 110.3 1091.04 111.843 1091.94 113.781C1092.83 115.72 1092.98 117.92 1092.36 119.962C1092.26 120.275 1092.19 120.599 1092.17 120.926V120.926C1092.11 121.862 1092.36 122.791 1092.87 123.576C1093.38 124.361 1094.13 124.96 1095.01 125.284C1095.89 125.609 1096.85 125.641 1097.75 125.377C1098.65 125.113 1099.44 124.566 1100 123.818V123.818C1100.2 123.552 1100.36 123.264 1100.49 122.961C1101.34 121.004 1102.88 119.428 1104.82 118.534C1106.76 117.641 1108.96 117.491 1111 118.114C1111.31 118.214 1111.64 118.278 1111.97 118.303V118.303C1112.9 118.36 1113.83 118.114 1114.62 117.602C1115.4 117.089 1116 116.338 1116.32 115.458C1116.65 114.579 1116.68 113.619 1116.42 112.719C1116.15 111.82 1115.61 111.03 1114.86 110.465V110.465C1114.59 110.272 1114.3 110.11 1114 109.983Z" fill="#CBCBCB"/>
<path d="M1279.72 495.877C1277.76 495.024 1276.19 493.482 1275.3 491.543C1274.4 489.605 1274.25 487.405 1274.87 485.363C1274.98 485.05 1275.04 484.726 1275.06 484.398V484.398C1275.12 483.463 1274.87 482.534 1274.36 481.749C1273.85 480.964 1273.1 480.365 1272.22 480.04C1271.34 479.716 1270.38 479.684 1269.48 479.948C1268.58 480.212 1267.79 480.759 1267.23 481.507V481.507C1267.03 481.773 1266.87 482.06 1266.74 482.364C1265.89 484.321 1264.35 485.896 1262.41 486.79C1260.47 487.684 1258.27 487.834 1256.23 487.211C1255.92 487.11 1255.59 487.047 1255.26 487.022V487.022C1254.33 486.965 1253.4 487.211 1252.62 487.723C1251.83 488.235 1251.23 488.987 1250.91 489.866C1250.58 490.745 1250.55 491.706 1250.81 492.605C1251.08 493.505 1251.63 494.295 1252.37 494.859C1252.64 495.053 1252.93 495.215 1253.23 495.342C1255.19 496.194 1256.76 497.737 1257.66 499.675C1258.55 501.614 1258.7 503.814 1258.08 505.856C1257.98 506.169 1257.91 506.493 1257.89 506.82C1257.83 507.756 1258.08 508.685 1258.59 509.47C1259.1 510.255 1259.85 510.854 1260.73 511.178C1261.61 511.502 1262.57 511.535 1263.47 511.271C1264.37 511.007 1265.16 510.46 1265.73 509.711C1265.92 509.446 1266.08 509.159 1266.21 508.855C1267.06 506.898 1268.6 505.322 1270.54 504.428C1272.48 503.535 1274.68 503.385 1276.72 504.008C1277.04 504.108 1277.36 504.172 1277.69 504.197V504.197C1278.62 504.254 1279.55 504.008 1280.34 503.496C1281.12 502.983 1281.72 502.232 1282.04 501.352C1282.37 500.473 1282.4 499.513 1282.14 498.613C1281.87 497.714 1281.33 496.924 1280.58 496.359V496.359C1280.31 496.165 1280.03 496.003 1279.72 495.877V495.877Z" fill="#F1F1F1"/>
<path d="M410.868 270.969C408.911 270.117 407.336 268.575 406.442 266.636C405.548 264.697 405.398 262.497 406.021 260.455C406.122 260.142 406.185 259.819 406.21 259.491V259.491C406.267 258.555 406.021 257.626 405.509 256.841C404.997 256.056 404.245 255.457 403.366 255.133C402.487 254.809 401.526 254.776 400.627 255.04C399.727 255.304 398.937 255.851 398.373 256.6V256.6C398.179 256.865 398.017 257.153 397.89 257.456C397.038 259.413 395.495 260.989 393.557 261.883C391.618 262.776 389.418 262.926 387.376 262.303C387.063 262.203 386.739 262.139 386.412 262.114V262.114C385.476 262.057 384.547 262.303 383.762 262.816C382.977 263.328 382.378 264.079 382.054 264.959C381.73 265.838 381.697 266.798 381.961 267.698C382.225 268.597 382.772 269.387 383.52 269.952C383.786 270.146 384.074 270.308 384.377 270.434C386.334 271.287 387.91 272.829 388.804 274.768C389.697 276.706 389.847 278.906 389.224 280.948C389.124 281.261 389.06 281.585 389.035 281.913V281.913C388.978 282.848 389.224 283.777 389.736 284.562C390.249 285.347 391 285.946 391.88 286.271C392.759 286.595 393.719 286.628 394.619 286.363C395.518 286.099 396.308 285.552 396.872 284.804V284.804C397.066 284.538 397.229 284.251 397.355 283.947C398.208 281.99 399.75 280.415 401.689 279.521C403.627 278.627 405.827 278.477 407.869 279.1C408.182 279.201 408.506 279.264 408.834 279.289V279.289C409.769 279.346 410.698 279.1 411.483 278.588C412.268 278.076 412.867 277.324 413.192 276.445C413.516 275.566 413.548 274.605 413.284 273.706C413.02 272.807 412.473 272.016 411.725 271.452V271.452C411.459 271.258 411.172 271.096 410.868 270.969V270.969Z" fill="#F1F1F1"/>
<path d="M773.336 132.577C781.181 132.577 787.54 126.217 787.54 118.372C787.54 110.527 781.181 104.168 773.336 104.168C765.491 104.168 759.131 110.527 759.131 118.372C759.131 126.217 765.491 132.577 773.336 132.577Z" fill="#F1F1F1"/>
<path d="M1530.92 94.6979C1538.76 94.6979 1545.12 88.3382 1545.12 80.4932C1545.12 72.6482 1538.76 66.2885 1530.92 66.2885C1523.07 66.2885 1516.71 72.6482 1516.71 80.4932C1516.71 88.3382 1523.07 94.6979 1530.92 94.6979Z" fill="#3ACD7E"/>
<path d="M427.688 28.4094C435.533 28.4094 441.893 22.0497 441.893 14.2047C441.893 6.35965 435.533 0 427.688 0C419.843 0 413.484 6.35965 413.484 14.2047C413.484 22.0497 419.843 28.4094 427.688 28.4094Z" fill="#CBCBCB"/>
<path d="M373.062 673.99C429.373 673.99 475.022 628.342 475.022 572.031C475.022 515.72 429.373 470.071 373.062 470.071C316.752 470.071 271.103 515.72 271.103 572.031C271.103 628.342 316.752 673.99 373.062 673.99Z" fill="#2F2E41"/>
<path d="M357.575 652.05H326.6V707.547H357.575V652.05Z" fill="#2F2E41"/>
<path d="M419.525 652.05H388.55V707.547H419.525V652.05Z" fill="#2F2E41"/>
<path d="M352.412 717.872C366.668 717.872 378.225 713.538 378.225 708.192C378.225 702.846 366.668 698.512 352.412 698.512C338.156 698.512 326.6 702.846 326.6 708.192C326.6 713.538 338.156 717.872 352.412 717.872Z" fill="#2F2E41"/>
<path d="M414.362 716.581C428.618 716.581 440.175 712.247 440.175 706.901C440.175 701.555 428.618 697.222 414.362 697.222C400.107 697.222 388.55 701.555 388.55 706.901C388.55 712.247 400.107 716.581 414.362 716.581Z" fill="#2F2E41"/>
<path d="M482.934 527.476C505.015 505.378 517.292 481.845 510.355 474.913C503.417 467.981 479.893 480.276 457.812 502.374C435.731 524.472 423.454 548.005 430.392 554.937C437.329 561.869 460.853 549.575 482.934 527.476Z" fill="#2F2E41"/>
<path d="M290.879 562.04C297.817 555.108 285.54 531.574 263.459 509.476C241.378 487.378 217.854 475.083 210.917 482.015C203.979 488.947 216.256 512.481 238.337 534.579C260.418 556.677 283.942 568.972 290.879 562.04Z" fill="#2F2E41"/>
<path d="M368.772 592.429C388.018 592.429 403.619 576.827 403.619 557.582C403.619 538.336 388.018 522.735 368.772 522.735C349.527 522.735 333.926 538.336 333.926 557.582C333.926 576.827 349.527 592.429 368.772 592.429Z" fill="white"/>
<path d="M368.772 569.197C375.188 569.197 380.388 563.997 380.388 557.582C380.388 551.167 375.188 545.966 368.772 545.966C362.357 545.966 357.157 551.167 357.157 557.582C357.157 563.997 362.357 569.197 368.772 569.197Z" fill="#3F3D56"/>
<path d="M396.435 622.03C397.511 627.943 396.195 634.041 392.775 638.984C389.355 643.926 384.111 647.308 378.198 648.384C372.285 649.461 366.186 648.144 361.244 644.724C356.301 641.304 352.92 636.06 351.843 630.147V630.147L351.835 630.103C349.606 617.788 359.128 613.429 371.444 611.2C383.76 608.97 394.206 609.714 396.435 622.03Z" fill="white"/>
<path d="M473.04 679.04C470.745 679.042 468.545 679.955 466.922 681.578C465.299 683.201 464.386 685.401 464.384 687.696V705.777C464.386 708.072 465.299 710.272 466.922 711.895C468.545 713.517 470.745 714.43 473.04 714.433H612.316C614.611 714.43 616.812 713.517 618.434 711.895C620.057 710.272 620.97 708.072 620.973 705.777V687.696C620.97 685.401 620.057 683.201 618.434 681.578C616.812 679.955 614.611 679.042 612.316 679.04H473.04Z" fill="#E5E5E5"/>
<path d="M553.135 666.998C552.273 666.5 551.248 666.366 550.287 666.623C549.325 666.881 548.505 667.51 548.007 668.372L542.832 677.337L537.76 667.313C537.31 666.424 536.526 665.751 535.58 665.441C534.634 665.13 533.604 665.209 532.716 665.658C531.827 666.108 531.154 666.892 530.844 667.837C530.534 668.783 530.612 669.814 531.061 670.702L535.008 678.503H533.562V714.969H552.867V678.503H550.827L554.509 672.126C555.007 671.264 555.142 670.239 554.884 669.277C554.627 668.316 553.997 667.496 553.135 666.998V666.998Z" fill="#3ACD7E"/>
<path d="M370.437 505.154C352.321 505.136 334.311 502.384 317.015 496.993C315.814 496.605 314.765 495.847 314.02 494.828C313.275 493.808 312.872 492.58 312.867 491.317V449.815C312.869 448.246 313.493 446.741 314.603 445.632C315.712 444.522 317.217 443.898 318.786 443.896H422.953C424.523 443.898 426.027 444.522 427.137 445.632C428.246 446.741 428.87 448.246 428.872 449.815V491.293C428.873 492.566 428.464 493.806 427.705 494.829C426.947 495.852 425.879 496.604 424.661 496.973C407.085 502.343 388.815 505.1 370.437 505.154V505.154Z" fill="#3ACD7E"/>
<path opacity="0.2" d="M427.688 449.815V456.752L371.319 476.52C370.266 476.883 369.118 476.867 368.076 476.473L314.051 456.183V449.815C314.055 448.56 314.554 447.358 315.442 446.471C316.329 445.584 317.531 445.084 318.786 445.08H422.953C424.208 445.084 425.41 445.584 426.297 446.471C427.185 447.358 427.685 448.56 427.688 449.815Z" fill="black"/>
<path d="M369.742 468.498C369.032 468.498 368.327 468.371 367.662 468.122L286.929 437.808C285.788 437.379 284.807 436.608 284.12 435.601C283.433 434.593 283.074 433.398 283.092 432.179C283.11 430.96 283.504 429.776 284.22 428.789C284.937 427.803 285.94 427.061 287.094 426.667L363.055 400.68C364.282 400.264 365.611 400.259 366.842 400.664L451.62 428.924C452.791 429.314 453.811 430.061 454.537 431.06C455.262 432.059 455.657 433.259 455.667 434.494C455.676 435.728 455.3 436.934 454.589 437.944C453.879 438.954 452.871 439.716 451.706 440.125L371.699 468.166C371.07 468.386 370.408 468.498 369.742 468.498V468.498Z" fill="#3ACD7E"/>
<path d="M296.296 466.387H293.928V432.059H366.135V434.427H296.296V466.387Z" fill="#3F3D56"/>
<path d="M295.111 473.49C297.726 473.49 299.846 471.37 299.846 468.755C299.846 466.14 297.726 464.02 295.111 464.02C292.496 464.02 290.376 466.14 290.376 468.755C290.376 471.37 292.496 473.49 295.111 473.49Z" fill="#3F3D56"/>
<path d="M962.557 673.99C1018.87 673.99 1064.52 628.342 1064.52 572.031C1064.52 515.72 1018.87 470.071 962.557 470.071C906.246 470.071 860.597 515.72 860.597 572.031C860.597 628.342 906.246 673.99 962.557 673.99Z" fill="#2F2E41"/>
<path d="M947.069 652.05H916.094V707.547H947.069V652.05Z" fill="#2F2E41"/>
<path d="M1009.02 652.05H978.044V707.547H1009.02V652.05Z" fill="#2F2E41"/>
<path d="M941.907 717.872C956.163 717.872 967.719 713.538 967.719 708.192C967.719 702.846 956.163 698.512 941.907 698.512C927.651 698.512 916.094 702.846 916.094 708.192C916.094 713.538 927.651 717.872 941.907 717.872Z" fill="#2F2E41"/>
<path d="M1003.86 716.581C1018.11 716.581 1029.67 712.247 1029.67 706.901C1029.67 701.555 1018.11 697.222 1003.86 697.222C989.601 697.222 978.044 701.555 978.044 706.901C978.044 712.247 989.601 716.581 1003.86 716.581Z" fill="#2F2E41"/>
<path d="M1072.43 527.476C1094.51 505.378 1106.79 481.845 1099.85 474.913C1092.91 467.981 1069.39 480.276 1047.31 502.374C1025.23 524.472 1012.95 548.005 1019.89 554.937C1026.82 561.869 1050.35 549.575 1072.43 527.476Z" fill="#2F2E41"/>
<path d="M871.55 622.118C889.368 596.458 897.282 571.122 889.226 565.529C881.171 559.935 860.196 576.203 842.379 601.863C824.561 627.523 816.648 652.859 824.703 658.452C832.759 664.046 853.733 647.779 871.55 622.118Z" fill="#2F2E41"/>
<path d="M958.267 592.429C977.512 592.429 993.114 576.827 993.114 557.582C993.114 538.336 977.512 522.735 958.267 522.735C939.021 522.735 923.42 538.336 923.42 557.582C923.42 576.827 939.021 592.429 958.267 592.429Z" fill="white"/>
<path d="M970.104 557.36C976.519 557.36 981.72 552.16 981.72 545.745C981.72 539.329 976.519 534.129 970.104 534.129C963.689 534.129 958.488 539.329 958.488 545.745C958.488 552.16 963.689 557.36 970.104 557.36Z" fill="#3F3D56"/>
<path d="M1000.05 622.03C1003.46 634.343 991.013 646.143 972.234 648.384C953.456 650.626 935.461 642.461 932.043 630.147L932.031 630.103C928.631 617.788 943.152 613.429 961.934 611.2C980.716 608.97 996.646 609.714 1000.05 622.03Z" fill="white"/>
<path d="M926.882 512.023C910.066 518.765 892.33 522.931 874.272 524.381C873.013 524.469 871.757 524.157 870.686 523.49C869.614 522.822 868.781 521.832 868.306 520.662L852.823 482.157C852.24 480.7 852.257 479.071 852.873 477.628C853.488 476.185 854.651 475.044 856.106 474.457L952.754 435.596C954.21 435.012 955.839 435.03 957.282 435.646C958.726 436.261 959.866 437.424 960.453 438.879L975.927 477.362C976.403 478.544 976.486 479.847 976.164 481.079C975.842 482.311 975.132 483.406 974.139 484.204C959.835 495.743 943.913 505.117 926.882 512.023V512.023Z" fill="#3ACD7E"/>
<path opacity="0.2" d="M959.355 439.321L961.943 445.756L917.018 485.127C916.176 485.857 915.105 486.27 913.991 486.293L856.297 487.624L853.921 481.715C853.457 480.549 853.472 479.248 853.964 478.093C854.456 476.939 855.385 476.027 856.548 475.555L953.195 436.694C954.361 436.229 955.663 436.245 956.817 436.737C957.971 437.229 958.883 438.158 959.355 439.321V439.321Z" fill="black"/>
<path d="M912.562 478.273C911.903 478.538 911.202 478.683 910.492 478.7L824.278 480.693C823.059 480.721 821.861 480.372 820.848 479.693C819.835 479.015 819.056 478.04 818.618 476.902C818.18 475.764 818.104 474.519 818.401 473.336C818.697 472.153 819.352 471.091 820.275 470.294L881.057 417.846C882.04 417.002 883.271 416.501 884.564 416.418L973.765 411.01C974.997 410.935 976.222 411.248 977.268 411.904C978.313 412.559 979.128 413.526 979.597 414.668C980.067 415.809 980.167 417.069 979.885 418.271C979.603 419.473 978.952 420.556 978.023 421.37L914.254 477.235C913.752 477.674 913.18 478.025 912.562 478.273V478.273Z" fill="#3ACD7E"/>
<path d="M843.631 503.715L841.434 504.598L828.628 472.749L895.622 445.809L896.505 448.006L831.706 474.062L843.631 503.715Z" fill="#3F3D56"/>
<path d="M843.415 511.088C846.03 511.088 848.15 508.968 848.15 506.353C848.15 503.738 846.03 501.618 843.415 501.618C840.8 501.618 838.68 503.738 838.68 506.353C838.68 508.968 840.8 511.088 843.415 511.088Z" fill="#3F3D56"/>
<path d="M1350.72 331.133C1335.35 321.542 1321.51 309.687 1309.68 295.969C1308.87 295.005 1308.38 293.807 1308.28 292.548C1308.19 291.289 1308.5 290.032 1309.16 288.958L1331.1 253.727C1331.93 252.396 1333.25 251.448 1334.78 251.093C1336.31 250.738 1337.92 251.003 1339.25 251.831L1427.68 306.888C1429.01 307.719 1429.96 309.044 1430.31 310.572C1430.67 312.1 1430.4 313.707 1429.57 315.04L1407.65 350.251C1406.98 351.332 1405.97 352.169 1404.79 352.636C1403.61 353.104 1402.3 353.178 1401.07 352.847C1383.31 348.117 1366.35 340.8 1350.72 331.133V331.133Z" fill="#3ACD7E"/>
<path opacity="0.2" d="M1428.57 314.415L1424.9 320.303L1366.6 307.291C1365.51 307.043 1364.55 306.422 1363.87 305.536L1328.73 259.758L1332.1 254.352C1332.77 253.289 1333.83 252.533 1335.05 252.249C1336.27 251.964 1337.56 252.175 1338.62 252.835L1427.05 307.893C1428.11 308.559 1428.87 309.619 1429.15 310.841C1429.44 312.063 1429.23 313.348 1428.57 314.415V314.415Z" fill="black"/>
<path d="M1369.5 299.648C1368.9 299.273 1368.37 298.792 1367.93 298.229L1315.42 229.824C1314.68 228.857 1314.26 227.684 1314.2 226.466C1314.15 225.248 1314.48 224.044 1315.14 223.018C1315.8 221.993 1316.76 221.196 1317.89 220.737C1319.02 220.278 1320.26 220.179 1321.45 220.454L1399.67 238.542C1400.93 238.838 1402.06 239.535 1402.89 240.53L1459.93 309.329C1460.71 310.28 1461.18 311.453 1461.27 312.684C1461.36 313.915 1461.06 315.143 1460.42 316.196C1459.77 317.249 1458.82 318.074 1457.68 318.556C1456.54 319.037 1455.28 319.152 1454.08 318.883L1371.34 300.4C1370.69 300.255 1370.07 300 1369.5 299.648Z" fill="#3ACD7E"/>
<path d="M1308.27 259.037L1306.26 257.784L1324.4 228.643L1385.7 266.809L1384.45 268.817L1325.16 231.903L1308.27 259.037Z" fill="#3F3D56"/>
<path d="M1306.01 265.155C1308.63 265.155 1310.75 263.035 1310.75 260.42C1310.75 257.805 1308.63 255.685 1306.01 255.685C1303.4 255.685 1301.28 257.805 1301.28 260.42C1301.28 263.035 1303.4 265.155 1306.01 265.155Z" fill="#3F3D56"/>
<path d="M1597.38 557.985C1653.69 557.985 1699.34 512.337 1699.34 456.026C1699.34 399.715 1653.69 354.066 1597.38 354.066C1541.07 354.066 1495.42 399.715 1495.42 456.026C1495.42 512.337 1541.07 557.985 1597.38 557.985Z" fill="#2F2E41"/>
<path d="M1668.07 508.893L1641.64 525.046L1670.58 572.4L1697.01 556.247L1668.07 508.893Z" fill="#2F2E41"/>
<path d="M1615.21 541.198L1588.78 557.351L1617.72 604.705L1644.15 588.552L1615.21 541.198Z" fill="#2F2E41"/>
<path d="M1680.37 578.517C1692.53 571.083 1700.13 561.359 1697.34 556.797C1694.56 552.236 1682.43 554.565 1670.27 561.999C1658.11 569.433 1650.51 579.157 1653.29 583.719C1656.08 588.28 1668.2 585.951 1680.37 578.517Z" fill="#2F2E41"/>
<path d="M1626.83 609.722C1639 602.287 1646.6 592.563 1643.81 588.002C1641.02 583.44 1628.9 585.769 1616.74 593.203C1604.57 600.637 1596.97 610.361 1599.76 614.923C1602.55 619.484 1614.67 617.156 1626.83 609.722Z" fill="#2F2E41"/>
<path d="M1540.05 438.933C1546.99 432.001 1534.71 408.467 1512.63 386.369C1490.55 364.271 1467.03 351.976 1460.09 358.908C1453.15 365.84 1465.43 389.374 1487.51 411.472C1509.59 433.57 1533.12 445.865 1540.05 438.933Z" fill="#2F2E41"/>
<path d="M1735.24 542.447C1743.29 536.854 1735.38 511.518 1717.56 485.858C1699.74 460.198 1678.77 443.93 1670.71 449.524C1662.66 455.117 1670.57 480.453 1688.39 506.113C1706.21 531.773 1727.18 548.041 1735.24 542.447Z" fill="#2F2E41"/>
<path d="M1566.16 462.219C1585.41 462.219 1601.01 446.618 1601.01 427.372C1601.01 408.127 1585.41 392.525 1566.16 392.525C1546.91 392.525 1531.31 408.127 1531.31 427.372C1531.31 446.618 1546.91 462.219 1566.16 462.219Z" fill="white"/>
<path d="M1554.32 427.151C1560.74 427.151 1565.94 421.95 1565.94 415.535C1565.94 409.12 1560.74 403.919 1554.32 403.919C1547.91 403.919 1542.71 409.12 1542.71 415.535C1542.71 421.95 1547.91 427.151 1554.32 427.151Z" fill="#3F3D56"/>
<path d="M1521.29 485.5C1514.68 496.327 1523.48 510.973 1540.95 518.214C1558.42 525.455 1577.94 522.548 1584.55 511.722L1584.57 511.684C1591.16 500.85 1578.36 492.745 1560.88 485.515C1543.41 478.285 1527.88 474.667 1521.29 485.5Z" fill="white"/>
<path d="M1563.17 328.003C1572.27 291.338 1612.46 269.762 1652.93 279.811C1693.4 289.86 1718.83 327.729 1709.72 364.393C1700.62 401.058 1670.41 401.176 1629.95 391.127C1589.48 381.078 1554.07 364.668 1563.17 328.003Z" fill="#E6E6E6"/>
<path d="M1917.63 719.704H2.36745C1.73956 719.704 1.13739 719.455 0.693408 719.011C0.249425 718.567 0 717.964 0 717.337C0 716.709 0.249425 716.107 0.693408 715.663C1.13739 715.219 1.73956 714.969 2.36745 714.969H1917.63C1918.26 714.969 1918.86 715.219 1919.31 715.663C1919.75 716.107 1920 716.709 1920 717.337C1920 717.964 1919.75 718.567 1919.31 719.011C1918.86 719.455 1918.26 719.704 1917.63 719.704Z" fill="#CBCBCB"/>
</svg>
