<svg width="100" height="100" viewBox="0 0 100 100" fill="none" xmlns="http://www.w3.org/2000/svg">
<path d="M83.3334 82.8334V91.6667L75.8334 86.7917L55.8751 49.2917C58.6251 48.4167 61.1251 47 63.2917 45.125L83.3334 82.8334ZM62.5001 29.1667C62.5001 32.4819 61.1831 35.6613 58.8389 38.0055C56.4947 40.3497 53.3153 41.6667 50.0001 41.6667H48.1668L24.1667 86.7917L16.6667 91.6667V82.8334L40.7917 37.5C36.2084 32.375 36.6251 24.4584 41.7917 19.8334C44.0417 17.8334 46.9584 16.6667 50.0001 16.6667V8.33337C51.1052 8.33337 52.165 8.77236 52.9464 9.55376C53.7278 10.3352 54.1668 11.395 54.1668 12.5V17.4167C59.1668 19.1667 62.5001 23.875 62.5001 29.1667ZM54.1668 29.1667C54.1668 28.0616 53.7278 27.0018 52.9464 26.2204C52.165 25.439 51.1052 25 50.0001 25C48.895 25 47.8352 25.439 47.0538 26.2204C46.2724 27.0018 45.8334 28.0616 45.8334 29.1667C45.8334 30.2718 46.2724 31.3316 47.0538 32.113C47.8352 32.8944 48.895 33.3334 50.0001 33.3334C51.1052 33.3334 52.165 32.8944 52.9464 32.113C53.7278 31.3316 54.1668 30.2718 54.1668 29.1667Z" fill="white"/>
</svg>
