<svg width="120" height="120" viewBox="0 0 120 120" fill="none" xmlns="http://www.w3.org/2000/svg">
<path fill-rule="evenodd" clip-rule="evenodd" d="M81.51 10C89.55 10 96.485 12.685 101.56 17.77C106.865 23.08 109.775 30.805 109.765 39.525L109.772 74.507C109.781 74.6416 109.783 74.7765 109.777 74.9112L109.765 80.25C109.765 97.905 98.4 109.77 81.485 109.77H38.255C21.355 109.77 10 97.905 10 80.25V39.52C10 21.865 21.355 10 38.255 10H81.51ZM82.893 64.1615C79.953 64.1615 76.503 69.0265 73.448 73.3215C69.258 79.2215 64.923 85.3265 58.393 85.3265C53.978 85.3265 49.933 83.6265 46.368 82.1215C40.698 79.7315 38.128 78.9665 35.613 81.0365C30.5785 85.1852 25.6039 92.7397 23.3181 96.4572C26.9259 100.177 32.0508 102.27 38.255 102.27H81.485C94.11 102.27 102.265 93.63 102.265 80.25L102.265 76.255L102.15 76.1335C97.7726 71.6239 90.2144 64.1615 82.893 64.1615ZM81.51 17.5H38.255C25.65 17.5 17.5 26.145 17.5 39.52V80.25C17.5 83.5929 18.0087 86.64 18.9686 89.3303C21.862 84.9617 26.232 79.0469 30.848 75.2465C37.108 70.0965 43.848 72.9265 49.278 75.2115C52.473 76.5565 55.493 77.8265 58.393 77.8265C61.053 77.8265 64.388 73.1265 67.338 68.9815C71.433 63.2015 76.083 56.6615 82.893 56.6615C90.3666 56.6615 97.1357 61.2543 102.27 65.8122L102.265 39.52C102.275 32.705 100.195 27.015 96.255 23.07C92.615 19.425 87.52 17.5 81.51 17.5ZM44.285 30.9475C51.44 30.9525 57.26 36.7725 57.265 43.9225V43.9275C57.265 51.0825 51.445 56.9025 44.285 56.9025C37.125 56.9025 31.305 51.0825 31.305 43.9275C31.305 36.7675 37.125 30.9475 44.285 30.9475ZM44.28 38.4475C41.26 38.4475 38.805 40.9025 38.805 43.9275C38.805 46.9475 41.26 49.4025 44.285 49.4025C47.305 49.4025 49.765 46.9475 49.765 43.9325C49.76 40.9075 47.3 38.4525 44.28 38.4475Z" fill="#3ACD7E" fill-opacity="0.8"/>
</svg>
