<svg width="40" height="40" viewBox="0 0 40 40" fill="none" xmlns="http://www.w3.org/2000/svg">
<path d="M20 35C18.8334 35 17.8472 34.59 17.0417 33.77C16.2361 32.9511 15.8334 31.9722 15.8334 30.8333C15.8334 29.6667 16.2361 28.6806 17.0417 27.875C17.8472 27.0694 18.8334 26.6667 20 26.6667C21.1667 26.6667 22.1528 27.0694 22.9584 27.875C23.7639 28.6806 24.1667 29.6667 24.1667 30.8333C24.1667 31.9722 23.7639 32.9511 22.9584 33.77C22.1528 34.59 21.1667 35 20 35ZM34.6667 16.8333C32.6389 15.1944 30.3822 13.9233 27.8967 13.02C25.41 12.1178 22.7778 11.6667 20 11.6667C19.4167 11.6667 18.8545 11.6872 18.3134 11.7283C17.7711 11.7706 17.2222 11.8333 16.6667 11.9167L12.4167 7.66667C13.6389 7.33333 14.8822 7.08333 16.1467 6.91667C17.41 6.75 18.6945 6.66667 20 6.66667C23.4722 6.66667 26.7572 7.25 29.855 8.41667C32.9517 9.58333 35.7222 11.1944 38.1667 13.25C38.6945 13.6944 38.9656 14.25 38.98 14.9167C38.9934 15.5833 38.75 16.1806 38.25 16.7083C37.7778 17.1806 37.2017 17.4306 36.5217 17.4583C35.8406 17.4861 35.2222 17.2778 34.6667 16.8333V16.8333ZM29.2917 24.5417L28.355 23.6033L27.4167 22.6667L21.4167 16.6667C23.25 16.8333 24.9934 17.25 26.6467 17.9167C28.2989 18.5833 29.7778 19.4306 31.0834 20.4583C31.6389 20.875 31.9167 21.4167 31.9167 22.0833C31.9167 22.75 31.6667 23.3333 31.1667 23.8333C30.9167 24.0833 30.625 24.2706 30.2917 24.395C29.9584 24.5206 29.625 24.5694 29.2917 24.5417ZM31.75 36.5L17.25 21.9167C16.3611 22.1111 15.5211 22.3817 14.73 22.7283C13.9378 23.0761 13.1806 23.4861 12.4584 23.9583C11.8472 24.375 11.2084 24.5694 10.5417 24.5417C9.87502 24.5139 9.30558 24.2639 8.83335 23.7917C8.33335 23.2917 8.09724 22.6944 8.12502 22C8.1528 21.3056 8.43058 20.7639 8.95835 20.375C9.59724 19.875 10.2778 19.4233 11 19.02C11.7222 18.6178 12.4722 18.25 13.25 17.9167L9.50002 14.1667C8.75002 14.5556 8.0278 14.9722 7.33335 15.4167C6.63891 15.8611 5.97224 16.3333 5.33335 16.8333C4.7778 17.2778 4.16002 17.4933 3.48002 17.48C2.79891 17.4656 2.22224 17.2083 1.75002 16.7083C1.2778 16.2083 1.04169 15.6111 1.04169 14.9167C1.04169 14.2222 1.30558 13.6667 1.83335 13.25C2.47224 12.7222 3.11835 12.2361 3.77169 11.7917C4.42391 11.3472 5.11113 10.9167 5.83335 10.5L3.50002 8.16667C3.19446 7.86111 3.04169 7.47222 3.04169 7C3.04169 6.52778 3.19446 6.13889 3.50002 5.83333C3.80558 5.52778 4.19446 5.375 4.66669 5.375C5.13891 5.375 5.5278 5.52778 5.83335 5.83333L34.125 34.125C34.4306 34.4306 34.5834 34.8267 34.5834 35.3133C34.5834 35.7989 34.4306 36.1944 34.125 36.5C33.7917 36.8333 33.3889 36.9933 32.9167 36.98C32.4445 36.9656 32.0556 36.8056 31.75 36.5V36.5Z" fill="black"/>
</svg>
