<svg width="40" height="40" viewBox="0 0 40 40" fill="none" xmlns="http://www.w3.org/2000/svg">
<path fill-rule="evenodd" clip-rule="evenodd" d="M8.83329 23.7917C8.33329 23.2917 8.09718 22.6944 8.12496 22C8.15274 21.3055 8.43051 20.7639 8.95829 20.375C10.4861 19.2083 12.1877 18.2983 14.0633 17.645C15.9377 16.9928 17.9166 16.6667 20 16.6667C22.1111 16.6667 24.1044 17 25.98 17.6667C27.8544 18.3333 29.5555 19.2639 31.0833 20.4583C31.6111 20.8472 31.8822 21.3822 31.8966 22.0633C31.91 22.7433 31.6666 23.3333 31.1666 23.8333C30.6944 24.3055 30.1183 24.5489 29.4383 24.5633C28.7572 24.5767 28.125 24.3889 27.5416 24C26.4583 23.25 25.285 22.6739 24.0216 22.2717C22.7572 21.8683 21.4166 21.6667 20 21.6667C18.5833 21.6667 17.2433 21.875 15.98 22.2917C14.7155 22.7083 13.5555 23.2778 12.5 24C11.8888 24.4167 11.2433 24.6044 10.5633 24.5633C9.88218 24.5211 9.30551 24.2639 8.83329 23.7917ZM1.74996 16.75C1.27774 16.2778 1.04163 15.7011 1.04163 15.02C1.04163 14.34 1.29163 13.7778 1.79163 13.3333C4.26385 11.25 7.04163 9.61777 10.125 8.43666C13.2083 7.25666 16.5 6.66666 20 6.66666C23.5 6.66666 26.7916 7.25666 29.875 8.43666C32.9583 9.61777 35.7361 11.25 38.2083 13.3333C38.7083 13.7778 38.9655 14.3333 38.98 15C38.9933 15.6667 38.75 16.25 38.25 16.75C37.7777 17.2222 37.2016 17.4722 36.5216 17.5C35.8405 17.5278 35.2222 17.3194 34.6666 16.875C32.6388 15.2361 30.3822 13.9583 27.8966 13.0417C25.41 12.125 22.7777 11.6667 20 11.6667C17.2222 11.6667 14.5905 12.125 12.105 13.0417C9.61829 13.9583 7.36107 15.2361 5.33329 16.875C4.77774 17.3194 4.15996 17.5278 3.47996 17.5C2.79885 17.4722 2.22218 17.2222 1.74996 16.75Z" fill="black"/>
<path d="M20 33.3333C19.0555 33.3333 18.2638 33.0139 17.625 32.375C16.9861 31.7361 16.6666 30.9444 16.6666 30C16.6666 29.0555 16.9861 28.2639 17.625 27.625C18.2638 26.9861 19.0555 26.6667 20 26.6667C20.9444 26.6667 21.7361 26.9861 22.375 27.625C23.0138 28.2639 23.3333 29.0555 23.3333 30C23.3333 30.9444 23.0138 31.7361 22.375 32.375C21.7361 33.0139 20.9444 33.3333 20 33.3333Z" fill="black"/>
</svg>
