<svg width="40" height="40" viewBox="0 0 40 40" fill="none" xmlns="http://www.w3.org/2000/svg">
<path fill-rule="evenodd" clip-rule="evenodd" d="M8.83335 23.7917C8.33335 23.2917 8.09724 22.6944 8.12502 22C8.1528 21.3056 8.43058 20.7639 8.95835 20.375C10.4861 19.2083 12.1878 18.2983 14.0634 17.645C15.9378 16.9928 17.9167 16.6667 20 16.6667C22.1111 16.6667 24.1045 17 25.98 17.6667C27.8545 18.3333 29.5556 19.2639 31.0834 20.4583C31.6111 20.8472 31.8822 21.3822 31.8967 22.0633C31.91 22.7433 31.6667 23.3333 31.1667 23.8333C30.6945 24.3056 30.1184 24.5489 29.4384 24.5633C28.7572 24.5767 28.125 24.3889 27.5417 24C26.4584 23.25 25.285 22.6739 24.0217 22.2717C22.7572 21.8683 21.4167 21.6667 20 21.6667C18.5834 21.6667 17.2434 21.875 15.98 22.2917C14.7156 22.7083 13.5556 23.2778 12.5 24C11.8889 24.4167 11.2434 24.6044 10.5634 24.5633C9.88224 24.5211 9.30558 24.2639 8.83335 23.7917ZM1.75002 16.75C1.2778 16.2778 1.04169 15.7011 1.04169 15.02C1.04169 14.34 1.29169 13.7778 1.79169 13.3333C4.26391 11.25 7.04169 9.61778 10.125 8.43667C13.2084 7.25667 16.5 6.66667 20 6.66667C23.5 6.66667 26.7917 7.25667 29.875 8.43667C32.9584 9.61778 35.7361 11.25 38.2084 13.3333C38.7084 13.7778 38.9656 14.3333 38.98 15C38.9934 15.6667 38.75 16.25 38.25 16.75C37.7778 17.2222 37.2017 17.4722 36.5217 17.5C35.8406 17.5278 35.2222 17.3194 34.6667 16.875C32.6389 15.2361 30.3822 13.9583 27.8967 13.0417C25.41 12.125 22.7778 11.6667 20 11.6667C17.2222 11.6667 14.5906 12.125 12.105 13.0417C9.61835 13.9583 7.36113 15.2361 5.33335 16.875C4.7778 17.3194 4.16002 17.5278 3.48002 17.5C2.79891 17.4722 2.22224 17.2222 1.75002 16.75Z" fill="white"/>
<path d="M20 33.3333C19.0556 33.3333 18.2639 33.0139 17.625 32.375C16.9861 31.7361 16.6667 30.9444 16.6667 30C16.6667 29.0556 16.9861 28.2639 17.625 27.625C18.2639 26.9861 19.0556 26.6667 20 26.6667C20.9445 26.6667 21.7361 26.9861 22.375 27.625C23.0139 28.2639 23.3334 29.0556 23.3334 30C23.3334 30.9444 23.0139 31.7361 22.375 32.375C21.7361 33.0139 20.9445 33.3333 20 33.3333Z" fill="white"/>
</svg>
