<svg width="100" height="100" viewBox="0 0 100 100" fill="none" xmlns="http://www.w3.org/2000/svg">
<path d="M87.6172 67.9297C85.3906 64.1016 82.7344 56.7969 82.7344 43.75V40.9766C82.7344 22.8125 68.1641 7.92969 50.2344 7.8125H50C45.6947 7.81249 41.4316 8.66177 37.455 10.3117C33.4784 11.9616 29.8663 14.3798 26.8256 17.4278C23.7849 20.4757 21.3754 24.0936 19.7349 28.0741C18.0945 32.0546 17.2554 36.3197 17.2656 40.625V43.75C17.2656 56.7969 14.6094 64.1016 12.3828 67.9297C11.7003 69.1197 11.3414 70.4678 11.342 71.8396C11.3427 73.2115 11.7027 74.5592 12.3863 75.7486C13.0699 76.938 14.0532 77.9275 15.2383 78.6186C16.4233 79.3097 17.7688 79.6782 19.1406 79.6875H32.8906C33.2978 83.9431 35.2762 87.8942 38.4398 90.7696C41.6034 93.6449 45.725 95.2381 50 95.2381C54.275 95.2381 58.3966 93.6449 61.5602 90.7696C64.7238 87.8942 66.7022 83.9431 67.1094 79.6875H80.8594C82.2312 79.6782 83.5767 79.3097 84.7617 78.6186C85.9468 77.9275 86.9301 76.938 87.6137 75.7486C88.2973 74.5592 88.6573 73.2115 88.658 71.8396C88.6586 70.4678 88.2997 69.1197 87.6172 67.9297V67.9297ZM50 85.9375C48.2009 85.9306 46.4588 85.306 45.0651 84.1683C43.6714 83.0306 42.7107 81.4488 42.3438 79.6875H57.6563C57.2893 81.4488 56.3286 83.0306 54.9349 84.1683C53.5412 85.306 51.7991 85.9306 50 85.9375V85.9375ZM21.7188 70.3125C25.7422 61.875 26.6406 51.3672 26.6406 43.75V40.625C26.6252 37.5494 27.2183 34.5011 28.3857 31.6557C29.5532 28.8102 31.272 26.2238 33.4432 24.0454C35.6144 21.8669 38.195 20.1395 41.0365 18.9625C43.8781 17.7856 46.9244 17.1823 50 17.1875H50.1953C62.9688 17.2656 73.3594 27.9297 73.3594 40.9766V43.75C73.3594 51.3672 74.2578 61.875 78.2813 70.3125H21.7188Z" fill="white"/>
</svg>
